<?xml version="1.0" encoding="utf-8"?>
<!-- Generator: Adobe Illustrator 16.0.3, SVG Export Plug-In . SVG Version: 6.00 Build 0)  -->
<!DOCTYPE svg PUBLIC "-//W3C//DTD SVG 1.1//EN" "http://www.w3.org/Graphics/SVG/1.1/DTD/svg11.dtd">
<svg version="1.1" id="Layer_1" xmlns="http://www.w3.org/2000/svg" xmlns:xlink="http://www.w3.org/1999/xlink" x="0px" y="0px"
	 width="612px" height="792px" viewBox="0 0 612 792" enable-background="new 0 0 612 792" xml:space="preserve">
<g id="Capa_1_1_" opacity="0.5">
	<path fill="#FFFFFF" d="M305.017-141.801c-191.679,0-347.053,155.326-347.053,347.021c0,191.694,347.053,754.58,347.053,754.58
		S652.04,396.883,652.04,205.221C652.038,13.525,496.694-141.801,305.017-141.801z"/>
</g>
<g id="Capa_1">
	<path fill="#E366B5" d="M306.01,90c-106.488,0-192.808,86.292-192.808,192.789S306.01,702,306.01,702
		s192.789-312.732,192.789-419.211C498.799,176.292,412.497,90,306.01,90z"/>
</g>
<g id="symbol">
	<g>
		<g>
			<path fill="#010002" d="M351.341,201.564c0,5.784,2.053,10.729,6.157,14.833c4.104,4.105,9.143,6.158,15.113,6.158
				c5.97,0,11.008-2.053,15.111-6.158c4.104-4.106,6.157-9.05,6.157-14.833c0-5.785-2.053-10.729-6.157-14.833
				c-4.104-4.104-9.143-6.157-15.111-6.157c-5.972,0-11.011,2.053-15.113,6.157C353.393,190.835,351.341,195.78,351.341,201.564z"/>
			<path fill="#010002" d="M238.829,405.035l-70.53-70.529v12.314l65.492,66.052c2.612,2.61,5.504,3.638,8.676,3.078
				c3.172-0.562,5.971-1.399,8.396-2.521c2.425-1.119,3.639-1.865,3.639-2.238l-6.158-6.717c-0.746,0.373-1.399,0.746-1.959,1.118
				c-0.56,0.373-1.772,0.746-3.638,1.119C240.881,407.088,239.575,406.529,238.829,405.035z"/>
			<rect x="168.3" y="272.373" fill="#010002" width="74.448" height="5.598"/>
			<polygon fill="#010002" points="435.303,252.222 443.7,256.14 361.975,421.268 353.019,421.268 			"/>
			<path fill="#010002" d="M299.843,238.228l-33.025,38.063c-1.866,2.612-4.479,3.918-7.837,3.918c-2.985,0-5.504-1.026-7.557-3.079
				c-2.053-2.053-3.079-4.572-3.079-7.557c0-2.985,1.12-5.598,3.359-7.837l35.265-40.862c2.239-2.612,5.037-3.918,8.396-3.918
				h51.498c3.73,0,6.901,1.306,9.517,3.918l32.465,33.026l27.43-27.428c1.864-1.493,4.104-2.239,6.718-2.239
				c2.983,0,5.598,1.026,7.837,3.079c2.238,2.052,3.356,4.571,3.356,7.557c0,2.612-0.934,5.038-2.799,7.277l-32.466,33.026
				c-2.985,2.985-5.971,4.571-8.956,4.758c-2.984,0.188-5.225-0.28-6.718-1.397l-2.238-2.239l-20.149-20.151l-31.349,36.384
				l29.107,29.107c0.373,0.374,0.84,0.934,1.397,1.68c0.562,0.747,1.215,2.612,1.959,5.598c0.743,2.985,0.37,6.157-1.117,9.516
				l-15.676,71.649c-0.744,3.355-2.425,6.063-5.035,8.113c-2.612,2.055-5.411,3.08-8.396,3.08c-3.731,0-6.997-1.398-9.796-4.199
				c-2.799-2.799-4.198-6.063-4.198-9.795c0-1.119,0.188-2.237,0.562-3.357l13.435-58.774l-33.026-31.905l-27.988,31.346
				c-0.373,0.373-0.933,0.84-1.679,1.399c-0.747,0.56-2.519,1.399-5.317,2.52c-2.799,1.119-5.877,1.492-9.236,1.119H197.41
				c-3.359,0.373-6.251-0.466-8.677-2.519c-2.425-2.053-4.012-4.759-4.758-8.117c-1.12-3.731-0.653-7.183,1.4-10.355
				s4.944-5.131,8.676-5.877h3.359h49.258l72.209-83.963L299.843,238.228z"/>
			<path fill="#010002" d="M425.228,422.388c0,2.612-1.024,4.943-3.077,6.996c-2.056,2.054-4.389,3.079-6.997,3.079H248.905v6.157
				h166.249c4.852,0,8.861-1.586,12.034-4.758s4.759-7.186,4.759-12.035L425.228,422.388z"/>
		</g>
	</g>
</g>
</svg>
