<?xml version="1.0" encoding="utf-8"?>
<!-- Generator: Adobe Illustrator 16.0.0, SVG Export Plug-In . SVG Version: 6.00 Build 0)  -->
<!DOCTYPE svg PUBLIC "-//W3C//DTD SVG 1.1//EN" "http://www.w3.org/Graphics/SVG/1.1/DTD/svg11.dtd">
<svg version="1.1" id="Layer_1" xmlns="http://www.w3.org/2000/svg" xmlns:xlink="http://www.w3.org/1999/xlink" x="0px" y="0px"
	 width="612px" height="792px" viewBox="0 0 612 792" enable-background="new 0 0 612 792" xml:space="preserve">
<g id="Capa_1_1_" opacity="0.3">
	<image overflow="visible" width="705" height="943" xlink:href="A33C4436.png"  transform="matrix(1 0 0 1 -46.5 -73.5)">
	</image>
	<g>
		<g>
			<path fill="#FFFFFF" d="M306.01,76.7c-111.813,0-202.448,90.606-202.448,202.429S306.01,719.301,306.01,719.301
				s202.429-328.369,202.429-440.172C508.439,167.307,417.822,76.7,306.01,76.7z"/>
		</g>
	</g>
</g>
<g id="Capa_1">
	<image overflow="visible" width="687" height="913" xlink:href="A33C4435.png"  transform="matrix(1 0 0 1 -37.5 -60.5)">
	</image>
	<g>
		<g>
			<path fill="#E366B5" d="M306.01,90c-106.488,0-192.808,86.292-192.808,192.789S306.01,702,306.01,702
				s192.789-312.732,192.789-419.211C498.799,176.292,412.497,90,306.01,90z"/>
		</g>
	</g>
</g>
<g id="symbol">
	<g>
		<g>
			<path fill="#010002" d="M276.925,209.712c-5.602,0-10.456,1.96-14.563,5.882c-4.108,3.921-6.162,8.682-6.162,14.283
				s2.054,10.362,6.162,14.283c4.107,3.921,8.962,5.882,14.563,5.882c5.601,0,10.362-1.961,14.283-5.882s5.881-8.682,5.881-14.283
				s-1.96-10.362-5.881-14.283C287.287,211.673,282.526,209.712,276.925,209.712z"/>
			<path fill="#010002" d="M380.551,249.482c-0.378-1.867-1.871-4.107-4.479-6.721l-119.87-79.54l-11.203,16.244
				c-2.614,3.734-2.054,6.909,1.681,9.522c3.734,2.615,6.908,2.054,9.522-1.68l6.722-9.522l97.464,64.416l-80.1,14.563
				c-2.614,0.373-4.854,1.773-6.722,4.201c-1.867,2.427-2.427,4.947-1.681,7.562l17.364,67.776l-56.014,84.021
				c-1.867,2.984-2.334,6.161-1.4,9.521c0.934,3.361,2.895,5.789,5.882,7.282c2.987,1.493,6.068,1.867,9.242,1.12
				s5.694-2.613,7.562-5.604c38.835-59,58.441-88.688,58.814-89.062l2.801,12.323l-8.962,66.655
				c-0.373,2.986,0.374,5.883,2.24,8.684s4.479,4.479,7.842,5.041c3.362,0.561,6.441-0.188,9.242-2.24s4.387-4.574,4.762-7.562
				l8.962-68.337c0.373-2.24,0.373-4.667,0-7.281l-20.165-80.1l52.096-8.962c2.61-0.747,4.761-2.241,6.438-4.479
				C380.27,255.083,380.924,252.469,380.551,249.482z"/>
		</g>
	</g>
</g>
</svg>
