<?xml version="1.0" encoding="iso-8859-1"?>
<!-- Generator: Adobe Illustrator 16.0.0, SVG Export Plug-In . SVG Version: 6.00 Build 0)  -->
<!DOCTYPE svg PUBLIC "-//W3C//DTD SVG 1.1//EN" "http://www.w3.org/Graphics/SVG/1.1/DTD/svg11.dtd">
<svg version="1.1" id="Capa_1" xmlns="http://www.w3.org/2000/svg" xmlns:xlink="http://www.w3.org/1999/xlink" x="0px" y="0px"
	 width="535.5px" height="535.5px" viewBox="0 0 535.5 535.5" style="enable-background:new 0 0 535.5 535.5;" xml:space="preserve"
	>
<g>
	<g>
		<ellipse cx="344.25" cy="439.875" rx="28.688" ry="19.125"/>
		<path d="M267.75,363.375c-22.95,0-45.9,1.912-66.938,3.825V221.85l248.625-107.1L181.688,0v124.312v246.713
			c-78.413,13.387-133.875,43.987-133.875,78.412c0,47.812,97.538,86.062,219.938,86.062c122.4,0,219.938-38.25,219.938-86.062
			S390.15,363.375,267.75,363.375z M200.812,28.688l200.812,86.062l-200.812,86.062V28.688z M267.75,516.375
			c-110.925,0-200.812-30.6-200.812-66.938c0-26.775,47.812-49.725,114.75-61.2v32.513c-21.038,1.912-38.25,13.388-38.25,28.688
			s21.038,28.688,47.812,28.688s47.812-13.388,47.812-28.688c0-13.388-17.212-24.862-38.25-28.688v-34.425
			c21.038-1.913,43.987-3.825,66.938-3.825c110.925,0,200.812,30.6,200.812,66.938S378.675,516.375,267.75,516.375z"/>
	</g>
</g>
<g>
</g>
<g>
</g>
<g>
</g>
<g>
</g>
<g>
</g>
<g>
</g>
<g>
</g>
<g>
</g>
<g>
</g>
<g>
</g>
<g>
</g>
<g>
</g>
<g>
</g>
<g>
</g>
<g>
</g>
</svg>
