<?xml version="1.0" encoding="utf-8"?>
<!-- Generator: Adobe Illustrator 16.0.3, SVG Export Plug-In . SVG Version: 6.00 Build 0)  -->
<!DOCTYPE svg PUBLIC "-//W3C//DTD SVG 1.1//EN" "http://www.w3.org/Graphics/SVG/1.1/DTD/svg11.dtd">
<svg version="1.1" id="Layer_1" xmlns="http://www.w3.org/2000/svg" xmlns:xlink="http://www.w3.org/1999/xlink" x="0px" y="0px"
	 width="612px" height="792px" viewBox="0 0 612 792" enable-background="new 0 0 612 792" xml:space="preserve">
<g id="Capa_1_1_" opacity="0.5">
	<path fill="#FFFFFF" d="M306.017-141.801c-191.679,0-347.053,155.326-347.053,347.021c0,191.694,347.053,754.58,347.053,754.58
		s347.021-562.918,347.021-754.58C653.038,13.525,497.694-141.801,306.017-141.801z"/>
</g>
<g id="Capa_1">
	<path fill="#E366B5" d="M306.01,90c-106.488,0-192.808,86.292-192.808,192.789S306.01,702,306.01,702
		s192.789-312.732,192.789-419.211C498.799,176.292,412.497,90,306.01,90z"/>
</g>
<g id="symbol">
	<g>
		<path d="M247.898,241.238c11.496,0,20.821-9.323,20.821-20.826c0-11.498-9.324-20.821-20.821-20.821
			c-11.507,0-20.822,9.323-20.822,20.821C227.076,231.914,236.391,241.238,247.898,241.238z"/>
		<path d="M460.248,359.708c-3.625-3.624-9.514-3.615-13.119,0.01c-3.029,3.025-8.291,3.039-11.344-0.014
			c-6.553-6.552-16.258-8.753-25.021-6.75c-41.486-78.078-40.906-129.49-40.164-140.408l6.217-4.711
			c2.027-1.55,2.436-4.458,0.887-6.501c-1.549-2.034-4.457-2.447-6.506-0.892l-72.586,55.062c-2.81-2.731-7.077-3.578-10.729-1.644
			l-23.567,12.478L246.52,252.45c-2.12-3.977-5.195-6.751-9.786-8.694c-1.272-0.538-5.524-1.841-9.659-0.882
			c-6.213,1.441-11.869,5.273-14.262,11.675c0,0-16.398,43.637-21.62,57.708c-4.104,11.059,4.041,21.41,11.698,21.41
			c0.028,0,0.045,0,0.064,0l44.77-0.213l15.05,37.947c2.174,5.459,7.402,8.789,12.938,8.789c1.712,0,3.443-0.316,5.128-0.983
			c7.15-2.835,10.639-10.927,7.811-18.071l-18.556-46.777c-2.104-5.305-7.231-8.784-12.94-8.784c-0.018,0-0.045,0-0.07,0
			l-23.805,0.112l11.608-30.97l12.74,9.95c1.667,1.295,3.678,1.961,5.708,1.961c1.485,0,2.979-0.354,4.348-1.078l28.877-15.29
			c1.965-1.042,3.289-2.75,4.087-4.658l65.083-49.364c-0.523,17.012,2.293,65.927,40.539,138.138
			c-2.965,1.255-5.736,2.999-8.084,5.346c-2.979,2.982-8.324,2.982-11.309,0c-10.057-10.058-27.553-10.053-37.592-0.013
			c-3.035,3.03-8.318,3.021-11.346,0c-3.623-3.625-9.496-3.625-13.121,0c-3.623,3.624-3.623,9.495,0,13.119
			c10.355,10.365,27.221,10.375,37.588,0c3.023-3.026,8.307-3.03,11.352,0.014c5.011,5.017,11.682,7.778,18.773,7.778
			c7.096,0,13.764-2.762,18.791-7.797c3.025-3.025,8.293-3.039,11.354,0.014c10.35,10.353,27.199,10.356,37.574-0.014
			C463.881,369.199,463.873,363.332,460.248,359.708z"/>
		<path d="M237.023,339.979h-42.857c-3.641,0-6.596,2.954-6.596,6.596v27.4c0,3.643,2.955,6.596,6.596,6.596h42.857
			c3.644,0,6.598-2.953,6.598-6.596v-27.4C243.621,342.933,240.667,339.979,237.023,339.979z"/>
	</g>
</g>
</svg>
