<?xml version="1.0" encoding="utf-8"?>
<!-- Generator: Adobe Illustrator 16.0.3, SVG Export Plug-In . SVG Version: 6.00 Build 0)  -->
<!DOCTYPE svg PUBLIC "-//W3C//DTD SVG 1.1//EN" "http://www.w3.org/Graphics/SVG/1.1/DTD/svg11.dtd">
<svg version="1.1" id="Layer_1" xmlns="http://www.w3.org/2000/svg" xmlns:xlink="http://www.w3.org/1999/xlink" x="0px" y="0px"
	 width="612px" height="792px" viewBox="0 0 612 792" enable-background="new 0 0 612 792" xml:space="preserve">
<g id="Capa_1_1_" opacity="0.5">
	<path fill="#FFFFFF" d="M306.012,42.8c-127.786,0-231.369,103.55-231.369,231.347s231.369,503.053,231.369,503.053
		s231.347-375.278,231.347-503.053C537.359,146.35,433.797,42.8,306.012,42.8z"/>
</g>
<g id="Capa_1">
	<path fill="#FFAE73" d="M306.01,90c-106.488,0-192.808,86.292-192.808,192.789S306.01,702,306.01,702
		s192.789-312.732,192.789-419.211C498.799,176.292,412.497,90,306.01,90z"/>
</g>
<g id="symbol">
	<g>
		<path fill="#030104" d="M385.135,177.936l-107.211,32.801c-12.989,3.705-23.517,17.254-23.517,30.243v111.525c0,0,0,1.525,0,1.564
			c0,0-7.768-5.24-25.071-2.789c-25.408,3.609-46.011,23.111-46.011,43.569c0,20.458,20.603,32.993,46.011,29.384
			c25.429-3.589,44.062-22.494,44.062-42.961c0,0,0-87.486,0-96.557c0-9.071,10.905-12.96,10.905-12.96l94.792-29.712
			c0,0,10.49-3.522,10.49,6.186s0,77.5,0,77.5s0,0.02,0,0.058c0,0-9.66-5.559-26.963-3.455c-25.408,3.078-46.01,22.176-46.01,42.624
			c0,20.468,20.602,33.418,46.01,30.33c25.428-3.078,46.031-22.165,46.031-42.633V194.747
			C408.652,181.758,398.114,174.231,385.135,177.936z"/>
	</g>
</g>
</svg>
