<?xml version="1.0" encoding="utf-8"?>
<!-- Generator: Adobe Illustrator 16.0.3, SVG Export Plug-In . SVG Version: 6.00 Build 0)  -->
<!DOCTYPE svg PUBLIC "-//W3C//DTD SVG 1.1//EN" "http://www.w3.org/Graphics/SVG/1.1/DTD/svg11.dtd">
<svg version="1.1" xmlns="http://www.w3.org/2000/svg" xmlns:xlink="http://www.w3.org/1999/xlink" x="0px" y="0px" width="612px"
	 height="792px" viewBox="0 0 612 792" enable-background="new 0 0 612 792" xml:space="preserve">
<g id="Capa_1">
	<path fill="#7AE969" d="M306.01,90c-106.488,0-192.808,86.292-192.808,192.789S306.01,702,306.01,702
		s192.789-312.732,192.789-419.211C498.799,176.292,412.497,90,306.01,90z"/>
</g>
<g id="symbol">
	<g>
		<path d="M439.346,186.774H172.673c-2.409,0-4.363,1.954-4.363,4.364v208.499c0,2.41,1.954,4.363,4.363,4.363h266.674
			c2.411,0,4.363-1.953,4.363-4.363V191.138C443.71,188.728,441.758,186.774,439.346,186.774z M417.529,369.213l-60.01-62.147
			c-0.664-0.685-1.749-0.729-2.464-0.1L313.433,343.6l-53.201-65.504c-0.346-0.428-0.851-0.673-1.422-0.66
			c-0.551,0.012-1.065,0.276-1.395,0.718L194.49,362.59V212.955h223.039V369.213L417.529,369.213z"/>
		<path d="M351.624,275.983c11.814,0,21.405-9.584,21.405-21.408c0-11.82-9.591-21.409-21.405-21.409
			c-11.823,0-21.405,9.589-21.405,21.409C330.219,266.398,339.801,275.983,351.624,275.983z"/>
	</g>
</g>
</svg>
