<?xml version="1.0" encoding="utf-8"?>
<!-- Generator: Adobe Illustrator 16.0.3, SVG Export Plug-In . SVG Version: 6.00 Build 0)  -->
<!DOCTYPE svg PUBLIC "-//W3C//DTD SVG 1.1//EN" "http://www.w3.org/Graphics/SVG/1.1/DTD/svg11.dtd">
<svg version="1.1" id="Layer_1" xmlns="http://www.w3.org/2000/svg" xmlns:xlink="http://www.w3.org/1999/xlink" x="0px" y="0px"
	 width="612px" height="792px" viewBox="0 0 612 792" enable-background="new 0 0 612 792" xml:space="preserve">
<g id="Capa_1_1_" opacity="0.5">
	<path fill="#FFFFFF" d="M306.017-145.801c-191.679,0-347.053,155.326-347.053,347.021c0,191.694,347.053,754.58,347.053,754.58
		s347.021-562.918,347.021-754.58C653.038,9.525,497.694-145.801,306.017-145.801z"/>
</g>
<g id="Capa_1">
	<path fill="#E366B5" d="M306.01,90c-106.488,0-192.808,86.292-192.808,192.789S306.01,702,306.01,702
		s192.789-312.732,192.789-419.211C498.799,176.292,412.497,90,306.01,90z"/>
</g>
<g id="symbol">
	<g>
		<circle fill="#030104" cx="385.887" cy="205.7" r="24.679"/>
		<path fill="#030104" d="M331.066,212.348c11.043,0,27.322,6.743,27.322,23.015c0,16.271-10.435,46.233-10.435,46.233
			s27.262,17.851,34.048,23.324c14.213,11.438,9.379,21.703-9.646,13.667c-30.892-13.038-45.392-19.472-47.718-27.613
			c-2.324-8.141-0.267-24.658-0.267-24.658l-17.851,7.416L231,218.227c0,0-6.936,4.93-10.563,4.93c-3.649,0-8.002-2.667-8.002-2.667
			l8.397-11.278l-9.005-10.99l12.505,5.324c-0.234,0,7.736-10.445,7.736-10.445s4.129,2.432,5.1,7.276s-0.832,9.518-0.832,9.518
			l32.511,23.826C268.849,233.719,288.034,212.348,331.066,212.348z"/>
		<path fill="#030104" d="M251.18,255.955c0,0,61.191,42.808,69.333,49.199c8.151,6.402,27.539,23.346,7.117,48.452
			c-19.996,24.583-41.421,48.666-41.421,48.666l-12.228-5.238l-15.706-8.151c0,0,29.438-36.726,34.677-43.715
			c5.229-6.978,3.563-12.739-3.542-18.075c-6.882-5.153-18.565-11.939-28.905-19.12C250.284,300.865,234.279,279.077,251.18,255.955
			z"/>
		<path fill="none" stroke="#030104" stroke-width="7" stroke-linecap="round" stroke-linejoin="round" stroke-miterlimit="10" d="
			M152.933,327.036l211.051,121.039c0,0,27.323,12.206,41.866-7.564"/>
	</g>
</g>
</svg>
