<?xml version="1.0" encoding="utf-8"?>
<!-- Generator: Adobe Illustrator 16.0.0, SVG Export Plug-In . SVG Version: 6.00 Build 0)  -->
<!DOCTYPE svg PUBLIC "-//W3C//DTD SVG 1.1//EN" "http://www.w3.org/Graphics/SVG/1.1/DTD/svg11.dtd">
<svg version="1.1" id="Layer_1" xmlns="http://www.w3.org/2000/svg" xmlns:xlink="http://www.w3.org/1999/xlink" x="0px" y="0px"
	 width="612px" height="792px" viewBox="0 0 612 792" enable-background="new 0 0 612 792" xml:space="preserve">
<g id="Capa_1_1_" opacity="0.3">
	<image overflow="visible" width="705" height="943" xlink:href="DCB0515B.png"  transform="matrix(1 0 0 1 -46.5 -73.5)">
	</image>
	<g>
		<g>
			<path fill="#FFFFFF" d="M306.01,76.7c-111.813,0-202.448,90.606-202.448,202.429S306.01,719.301,306.01,719.301
				s202.429-328.369,202.429-440.172C508.439,167.307,417.822,76.7,306.01,76.7z"/>
		</g>
	</g>
</g>
<g id="Capa_1">
	<image overflow="visible" width="687" height="913" xlink:href="DCB05163.png"  transform="matrix(1 0 0 1 -37.5 -60.5)">
	</image>
	<g>
		<g>
			<path fill="#E366B5" d="M306.01,90c-106.488,0-192.808,86.292-192.808,192.789S306.01,702,306.01,702
				s192.789-312.732,192.789-419.211C498.799,176.292,412.497,90,306.01,90z"/>
		</g>
	</g>
</g>
<g id="symbol">
	<g>
		<g>
			<path fill="#010002" d="M205.104,360.657c54.076,22.749,126.612,48.669,217.608,77.758c2.238,0.372,3.45-0.56,3.637-2.797
				c0.188-2.238-0.65-3.543-2.518-3.916c-90.624-28.343-175.467-60.603-254.529-96.777c-2.983-1.118-5.035-0.28-6.153,2.518
				c-1.119,2.797-0.373,4.755,2.237,5.874c6.34,2.982,12.121,5.594,17.342,7.831l-18.46,13.985c-2.238,3.356-1.678,6.34,1.678,8.95
				c2.611,1.492,5.221,1.492,7.832,0L205.104,360.657z"/>
			<path fill="#010002" d="M417.678,278.985l-59.854-55.381h0.56h0.563c5.967,0,11.094-2.145,15.384-6.433
				c4.288-4.289,6.433-9.51,6.433-15.663c0-6.154-2.145-11.375-6.433-15.664c-4.29-4.289-9.419-6.433-15.384-6.433
				c-5.971,0-11.1,2.144-15.387,6.433c-4.29,4.289-6.434,9.604-6.434,15.943c0,4.476,1.305,8.578,3.916,12.307l-40.836-14.544
				l-21.817-31.886c-1.865-2.611-4.29-4.102-7.272-4.476c-2.983-0.373-5.594,0.374-7.831,2.238
				c-2.238,1.864-3.543,4.289-3.916,7.272c0,2.237,0.56,4.475,1.678,6.713l22.376,32.445c1.119,1.492,2.424,2.61,3.916,3.356
				l25.733,10.069l-42.516,21.817c-6.339,3.73-10.069,9.138-11.188,16.223v39.159l-39.158,17.9
				c-5.222,2.611-7.832,6.526-7.832,11.748c0,4.102,1.212,7.458,3.636,10.068c2.424,2.611,5.5,4.103,9.23,4.476
				c2.237,0,4.476-0.56,6.713-1.679l48.108-21.816c3.73-1.864,5.968-4.848,6.713-8.95v-24.613l33.563,30.207l-6.15,51.466v0.559
				c-0.373,4.104,0.743,7.553,3.354,10.35c2.61,2.797,5.78,4.195,9.51,4.195c3.73,0,6.898-1.119,9.513-3.356
				c2.609-2.237,4.103-5.035,4.476-8.391l7.272-58.738v-0.562c0.373-4.102-0.937-7.645-3.916-10.628l-31.326-27.411l46.988-22.936
				l43.072,39.718c2.238,2.237,4.756,3.356,7.555,3.356c2.798,0,5.221-1.119,7.271-3.356c2.051-2.238,3.077-4.661,3.077-7.272
				C421.035,283.46,419.916,280.85,417.678,278.985z"/>
		</g>
	</g>
</g>
</svg>
